$MeshFormat
4.1 0 8
$EndMeshFormat
$PhysicalNames
4
0 3 "coastline"
1 1 "bottom"
1 2 "surface"
2 4 "interior"
$EndPhysicalNames
$Entities
3 2 1 0
1 -1 0 0 1 3 
2 0 0 -1 0 
3 1 0 0 1 3 
1 -1 0 -0.4938271604938271 1 0 0 1 1 2 1 -3 
2 -1 0 0 1 0 0 1 2 2 3 -1 
1 -1 0 -0.4938271604938271 1 0 0 1 4 2 1 2 
$EndEntities
$Nodes
5 109 1 109
0 1 0 1
1
-1 0 0
0 3 0 1
2
1 0 0
1 1 0 22
3
4
5
6
7
8
9
10
11
12
13
14
15
16
17
18
19
20
21
22
23
24
-0.9281502661632102 0 -0.06926854171058097
-0.8536322342975458 0 -0.13565600428409
-0.7762695998240381 0 -0.1987027541945138
-0.6958984877302949 0 -0.2578626473873442
-0.6123853318307542 0 -0.3124921026792685
-0.5256532222644983 0 -0.361844344961475
-0.4357179605789994 0 -0.4050749294144388
-0.3427321461807626 0 -0.4412673379871642
-0.2470303824346936 0 -0.4694879950770845
-0.1491609146844027 0 -0.4888755107652561
-0.04988338299608235 0 -0.498755824050433
0.0498833912213732 0 -0.4987558236401277
0.1491609220080179 0 -0.488875509672859
0.2470303888169436 0 -0.4694879935004748
0.3427321516776447 0 -0.441267336103206
0.4357179652132097 0 -0.4050749273952301
0.5256532259885709 0 -0.3618443430039042
0.6123853346325288 0 -0.3124921009635029
0.6958984896901077 0 -0.2578626460235136
0.7762696010163441 0 -0.1987027532689629
0.8536322347898253 0 -0.1356560038638643
0.9281502663402392 0 -0.06926854154627149
1 2 0 19
25
26
27
28
29
30
31
32
33
34
35
36
37
38
39
40
41
42
43
0.9000000000002774 0 0
0.8000000000005548 0 0
0.7000000000008322 0 0
0.6000000000011096 0 0
0.500000000001387 0 0
0.4000000000016644 0 0
0.3000000000019418 0 0
0.2000000000022192 0 0
0.1000000000024964 0 0
2.752242878045763e-12 0 0
-0.09999999999750342 0 0
-0.1999999999977808 0 0
-0.2999999999980583 0 0
-0.3999999999983355 0 0
-0.4999999999986129 0 0
-0.5999999999988903 0 0
-0.699999999999168 0 0
-0.7999999999994454 0 0
-0.8999999999997226 0 0
2 1 0 66
44
45
46
47
48
49
50
51
52
53
54
55
56
57
58
59
60
61
62
63
64
65
66
67
68
69
70
71
72
73
74
75
76
77
78
79
80
81
82
83
84
85
86
87
88
89
90
91
92
93
94
95
96
97
98
99
100
101
102
103
104
105
106
107
108
109
-0.002039097344603505 0 -0.4175315020098158
0.2731097046854082 0 -0.3609424276836734
-0.2770073475993099 0 -0.3585594692866147
-0.05274903555577169 0 -0.08501017353903718
0.155800634471699 0 -0.08339051829596762
0.4420427593944616 0 -0.3124951576141387
-0.4467403961169655 0 -0.3033446863648875
-0.2499866855684021 0 -0.08658487607376693
0.3500479081037355 0 -0.08661036408878209
0.5511111491512389 0 -0.07911943344541129
-0.5505650593003777 0 -0.07993628611580986
0.682400839792159 0 -0.1612460845877052
-0.6824008385625027 0 -0.1612460852528459
0.4502047776579485 0 -0.08533670672655017
0.5099285605533896 0 -0.1710847918815995
0.4017499554324029 0 -0.1676745937600523
0.3023422253465734 0 -0.1711835464535428
0.3512609930099061 0 -0.2610124169384228
0.2444611139481112 0 -0.2540232987341046
0.17284083095413 0 -0.3269768303271338
0.1496011998729825 0 -0.2347937494302136
0.08171878693115951 0 -0.2969911060478134
0.0574846531417059 0 -0.2038064854360334
-0.002067078749750023 0 -0.2679886511134487
0.09447621279929332 0 -0.3984090875366975
0.2533250290985803 0 -0.08463541093775676
0.05244027620246753 0 -0.09947519892511449
-0.1504586343443087 0 -0.08631889833780622
-0.2000722500152679 0 -0.173102081791703
-0.2999462141880621 0 -0.1731460889180468
-0.2499642639582954 0 -0.2596942989475448
-0.1604814999338747 0 -0.2523879335465754
-0.3529474072608217 0 -0.2648117706449652
-0.4047115383238203 0 -0.1724515762954391
-0.5060498108718673 0 -0.212953395957592
-0.1101572382387759 0 -0.1670974634292122
-0.4508729264122589 0 -0.07976824707477777
-0.3509195607481562 0 -0.08532513139367176
-0.7592845099087036 0 -0.09006798114559877
0.7592845104024396 0 -0.09006798087728687
-0.6069897229618156 0 -0.2279794994852769
0.6061311910979779 0 -0.2182557272880618
0.5258379520834754 0 -0.267556006839774
-0.1829098628129509 0 -0.4013212782521658
-0.09259324047896705 0 -0.4158780811123271
-0.3710290515473718 0 -0.3546116387396141
0.3689727147961261 0 -0.3561584531469342
-0.8482134020737254 0 -0.05899850542805395
0.8482134023066673 0 -0.05899850525748453
0.6499757738350995 0 -0.07608724892196486
-0.6499520818209036 0 -0.07612268775450366
0.2047537899917198 0 -0.1647377097221615
-0.01805653419416483 0 -0.1673250661018389
-0.1280703907517597 0 -0.3306683653217563
0.1873236118527586 0 -0.4089383697441676
-0.0468174469682562 0 -0.3366536103539464
-0.20329075416725 0 -0.3240025231846882
-0.5395636968091803 0 -0.2837228058896999
0.1237236611579029 0 -0.158143304396037
-0.5826595855860133 0 -0.1496465955808819
0.599909502885973 0 -0.1411586572249486
0.4480568616323893 0 -0.2330960927754272
-0.4989717840988675 0 -0.1389512202049001
-0.08073515372545084 0 -0.2420462126367722
-0.4329311732542655 0 -0.2360174490395933
0.02460027924099384 0 -0.3458088499295583
$EndNodes
$Elements
5 218 1 218
0 1 15 1
1 1 
0 3 15 1
2 2 
1 1 1 23
3 1 3 
4 3 4 
5 4 5 
6 5 6 
7 6 7 
8 7 8 
9 8 9 
10 9 10 
11 10 11 
12 11 12 
13 12 13 
14 13 14 
15 14 15 
16 15 16 
17 16 17 
18 17 18 
19 18 19 
20 19 20 
21 20 21 
22 21 22 
23 22 23 
24 23 24 
25 24 2 
1 2 1 20
26 2 25 
27 25 26 
28 26 27 
29 27 28 
30 28 29 
31 29 30 
32 30 31 
33 31 32 
34 32 33 
35 33 34 
36 34 35 
37 35 36 
38 36 37 
39 37 38 
40 38 39 
41 39 40 
42 40 41 
43 41 42 
44 42 43 
45 43 1 
2 1 2 173
46 45 61 62 
47 46 74 76 
48 61 45 90 
49 46 76 89 
50 25 24 2 
51 3 43 1 
52 22 23 83 
53 4 5 82 
54 84 78 103 
55 103 78 106 
56 45 62 63 
57 55 22 83 
58 5 56 82 
59 58 85 104 
60 85 58 86 
61 44 14 68 
62 14 15 68 
63 83 23 92 
64 4 82 91 
65 66 70 96 
66 70 66 102 
67 63 62 64 
68 97 99 107 
69 63 64 65 
70 63 65 68 
71 65 64 66 
72 32 48 69 
73 80 77 81 
74 31 32 69 
75 72 75 79 
76 38 80 81 
77 57 52 59 
78 71 72 79 
79 30 52 57 
80 47 71 79 
81 39 54 80 
82 48 33 70 
83 47 35 71 
84 53 57 58 
85 52 31 69 
86 59 60 61 
87 59 52 60 
88 72 73 74 
89 65 66 67 
90 73 51 81 
91 77 73 81 
92 71 51 72 
93 74 73 76 
94 72 51 73 
95 53 29 57 
96 58 57 59 
97 72 74 75 
98 61 60 62 
99 28 29 53 
100 39 40 54 
101 36 51 71 
102 34 47 70 
103 38 39 80 
104 30 31 52 
105 32 33 48 
106 36 37 51 
107 34 35 47 
108 29 30 57 
109 33 34 70 
110 35 36 71 
111 51 37 81 
112 37 38 81 
113 76 73 77 
114 60 52 69 
115 10 11 46 
116 16 17 45 
117 13 14 44 
118 8 9 50 
119 18 19 49 
120 5 6 56 
121 21 22 55 
122 78 77 106 
123 74 46 100 
124 53 58 104 
125 41 42 82 
126 26 27 83 
127 50 78 101 
128 67 66 96 
129 26 83 92 
130 82 42 91 
131 25 26 92 
132 42 43 91 
133 78 50 108 
134 77 78 108 
135 23 24 92 
136 3 4 91 
137 28 53 93 
138 54 40 94 
139 76 50 89 
140 64 62 95 
141 49 61 90 
142 69 48 95 
143 6 7 84 
144 20 21 85 
145 56 6 84 
146 21 55 85 
147 62 60 95 
148 67 96 107 
149 61 49 105 
150 55 83 93 
151 82 56 94 
152 41 82 94 
153 83 27 93 
154 19 20 86 
155 49 19 86 
156 78 84 101 
157 70 47 96 
158 48 70 102 
159 50 9 89 
160 18 49 90 
161 77 80 106 
162 10 46 89 
163 45 17 90 
164 59 61 105 
165 11 12 87 
166 46 11 87 
167 99 67 107 
168 45 63 98 
169 12 13 88 
170 13 44 88 
171 9 10 89 
172 17 18 90 
173 20 85 86 
174 75 97 107 
175 27 28 93 
176 40 41 94 
177 43 3 91 
178 24 25 92 
179 8 50 101 
180 16 45 98 
181 60 69 95 
182 54 103 106 
183 87 12 88 
184 68 15 98 
185 50 76 108 
186 84 7 101 
187 44 68 109 
188 95 48 102 
189 63 68 98 
190 47 79 96 
191 68 65 109 
192 75 74 100 
193 15 16 98 
194 76 77 108 
195 86 58 105 
196 96 79 107 
197 7 8 101 
198 54 94 103 
199 93 53 104 
200 66 64 102 
201 65 67 109 
202 58 59 105 
203 87 88 97 
204 49 86 105 
205 80 54 106 
206 79 75 107 
207 88 44 99 
208 56 84 103 
209 85 55 104 
210 64 95 102 
211 46 87 100 
212 97 75 100 
213 94 56 103 
214 55 93 104 
215 97 88 99 
216 87 97 100 
217 67 99 109 
218 99 44 109 
$EndElements
